# xmcd
#
# Track frame offsets: 
#        150
#        21138
#        34423
#        48010
#        66491
#        81545
#        98981
#        113355
#        129099
#        145009
#        164704
#
# Disc length: 2414 seconds
#
# Revision: 0
# Processed by: cddbd v1.5.2PL0 Copyright (c) Steve Scherf et al.
# Submitted via: ExactAudioCopy v1.0b1
#
DISCID=91096c0b
DTITLE=Tracy Lawrence - Headlights, tailights, and Radios
DYEAR=2013
DGENRE=Country
TTITLE0=Footprints On The Moon
TTITLE1=Stop Drop And Roll
TTITLE2=Where I Used To Live
TTITLE3=Lie
TTITLE4=Black Top
TTITLE5=Good Girl
TTITLE6=Cecil's Palace
TTITLE7=Cloud Of Dust
TTITLE8=Other Side Of 35
TTITLE9=Saving Savannah
TTITLE10=Butterfly
EXTD=
EXTT0=
EXTT1=
EXTT2=
EXTT3=
EXTT4=
EXTT5=
EXTT6=
EXTT7=
EXTT8=
EXTT9=
EXTT10=
PLAYORDER=
